<svg width="140" height="140" viewBox="0 0 140 140" fill="none" xmlns="http://www.w3.org/2000/svg">
  <!-- Badminton Racket Handle -->
  <rect x="58" y="70" width="18" height="50" fill="#F59E0B" rx="4"/>
  
  <!-- Badminton Racket Head Frame -->
  <circle cx="67" cy="40" r="26" fill="none" stroke="#F59E0B" stroke-width="5"/>
  
  <!-- Racket strings - vertical -->
  <line x1="46" y1="25" x2="88" y2="25" stroke="#F59E0B" stroke-width="2" opacity="0.5"/>
  <line x1="44" y1="35" x2="90" y2="35" stroke="#F59E0B" stroke-width="2" opacity="0.5"/>
  <line x1="43" y1="45" x2="91" y2="45" stroke="#F59E0B" stroke-width="2" opacity="0.5"/>
  <line x1="44" y1="55" x2="90" y2="55" stroke="#F59E0B" stroke-width="2" opacity="0.5"/>
  
  <!-- Racket strings - horizontal -->
  <line x1="67" y1="15" x2="67" y2="65" stroke="#F59E0B" stroke-width="2" opacity="0.5"/>
  <line x1="52" y1="18" x2="82" y2="62" stroke="#F59E0B" stroke-width="1.5" opacity="0.5"/>
  <line x1="82" y1="18" x2="52" y2="62" stroke="#F59E0B" stroke-width="1.5" opacity="0.5"/>
  
  <!-- Shuttlecock body -->
  <ellipse cx="110" cy="85" rx="8" ry="10" fill="#8B7355"/>
  
  <!-- Shuttlecock feathers -->
  <path d="M115 78C118 72 120 68 120 62" stroke="#F59E0B" stroke-width="5" fill="none" stroke-linecap="round"/>
  <path d="M110 77C115 68 118 60 120 50" stroke="#F59E0B" stroke-width="5" fill="none" stroke-linecap="round"/>
  <path d="M105 78C102 68 100 60 100 50" stroke="#F59E0B" stroke-width="5" fill="none" stroke-linecap="round"/>
</svg>